<?xml version="1.0" standalone="no"?><!DOCTYPE svg PUBLIC "-//W3C//DTD SVG 1.1//EN" "http://www.w3.org/Graphics/SVG/1.1/DTD/svg11.dtd"><svg class="icon" width="64px" height="64.00px" viewBox="0 0 1024 1024" version="1.1" xmlns="http://www.w3.org/2000/svg"><path d="M764.9 64H225.4l1.4 224.2 64-0.4-1-159.8h383.6v224H896v544H289.8l1-159.8-64-0.4-1.4 224.2H960V277.7L764.9 64z m-27.6 64.7L882.8 288H737.3V128.7z" fill="#727272" /><path d="M356.5 224h255.9v64H356.5z" fill="#497CAD" /><path d="M576.4 416h255.9v64H576.4zM512.5 576h319.8v64H512.5zM384.5 736h447.8v64H384.5z" fill="#B2B2B2" /><path d="M226.8 349h138.3l-98.8 98.9h233.5v128.2H266.3l98.8 98.9H226.8L64 512z" fill="#497CAD" /></svg>